<mxfile host="app.diagrams.net" modified="2021-05-17T06:18:40.428Z" agent="5.0 (X11; Linux x86_64) AppleWebKit/537.36 (KHTML, like Gecko) Chrome/90.0.4430.212 Safari/537.36" etag="E8ZaCTkvHkLG0HZr6Ftv" version="14.6.3" type="github">
  <diagram id="1wfaf5QiCRPp9rUNCaNN" name="Page-1">
    <mxGraphModel dx="1422" dy="833" grid="1" gridSize="10" guides="1" tooltips="1" connect="1" arrows="1" fold="1" page="1" pageScale="1" pageWidth="827" pageHeight="1169" math="0" shadow="0">
      <root>
        <mxCell id="0" />
        <mxCell id="1" parent="0" />
        <mxCell id="VabLKRaZAwIK62j0cFE1-1" value="" style="whiteSpace=wrap;html=1;aspect=fixed;" vertex="1" parent="1">
          <mxGeometry x="150" y="170" width="550" height="550" as="geometry" />
        </mxCell>
        <mxCell id="VabLKRaZAwIK62j0cFE1-2" value="" style="rounded=0;whiteSpace=wrap;html=1;" vertex="1" parent="1">
          <mxGeometry x="180" y="230" width="280" height="60" as="geometry" />
        </mxCell>
        <mxCell id="VabLKRaZAwIK62j0cFE1-3" value="" style="rounded=0;whiteSpace=wrap;html=1;" vertex="1" parent="1">
          <mxGeometry x="180" y="380" width="280" height="60" as="geometry" />
        </mxCell>
        <mxCell id="VabLKRaZAwIK62j0cFE1-4" value="" style="rounded=0;whiteSpace=wrap;html=1;" vertex="1" parent="1">
          <mxGeometry x="180" y="525" width="280" height="60" as="geometry" />
        </mxCell>
        <mxCell id="VabLKRaZAwIK62j0cFE1-5" value="" style="rounded=0;whiteSpace=wrap;html=1;" vertex="1" parent="1">
          <mxGeometry x="180" y="620" width="280" height="60" as="geometry" />
        </mxCell>
      </root>
    </mxGraphModel>
  </diagram>
</mxfile>
